<svg width="182" height="27" viewBox="0 0 182 27" fill="none" xmlns="http://www.w3.org/2000/svg">
<path d="M12.15 8.11L10.7816 7.81413L10.5719 8.78411L11.4177 9.3032L12.15 8.11ZM19.14 12.4L20.2445 13.2603L21.2062 12.0255L19.8723 11.2068L19.14 12.4ZM16.71 15.52L15.9766 16.7125L17.0443 17.3692L17.8145 16.3803L16.71 15.52ZM10.32 11.59L11.0534 10.3975L10.0407 9.77464L9.26204 10.6731L10.32 11.59ZM7.26 13.96L7.9178 15.1959L7.92491 15.192L7.26 13.96ZM2.73 15.55L1.53433 16.2783L2.05688 17.1362L3.03695 16.9159L2.73 15.55ZM0.72 12.25L0.429831 10.8804L-1.50392 11.2901L-0.475668 12.9783L0.72 12.25ZM5.97 10.03L6.88269 11.0917L6.89321 11.0825L5.97 10.03ZM7.68 0.189998V-1.21H6.28V0.189998H7.68ZM12.39 0.189998H13.79V-1.21H12.39V0.189998ZM7.92 17.38H9.32V15.98H7.92V17.38ZM7.92 22.3H6.52V23.7H7.92V22.3ZM26.31 22.3H27.71V20.9H26.31V22.3ZM26.31 25.93V27.33H27.71V25.93H26.31ZM3.21 25.93H1.81V27.33H3.21V25.93ZM3.21 17.38V15.98H1.81V17.38H3.21ZM26.01 0.249999H27.41V-1.15H26.01V0.249999ZM26.01 18.16V19.56H27.41V18.16H26.01ZM21.3 18.16H19.9V19.56H21.3V18.16ZM21.3 0.249999V-1.15H19.9V0.249999H21.3ZM10.99 5.95C10.99 6.54283 10.9223 7.16352 10.7816 7.81413L13.5184 8.40586C13.6977 7.57648 13.79 6.75717 13.79 5.95H10.99ZM11.4177 9.3032L18.4077 13.5932L19.8723 11.2068L12.8823 6.9168L11.4177 9.3032ZM18.0355 11.5397L15.6055 14.6597L17.8145 16.3803L20.2445 13.2603L18.0355 11.5397ZM17.4434 14.3275L11.0534 10.3975L9.58658 12.7825L15.9766 16.7125L17.4434 14.3275ZM9.26204 10.6731C8.61283 11.4222 7.73543 12.1126 6.59509 12.728L7.92491 15.192C9.30457 14.4474 10.4672 13.5578 11.378 12.5069L9.26204 10.6731ZM6.60221 12.7242C5.50005 13.3108 4.1151 13.8038 2.42305 14.1841L3.03695 16.9159C4.9049 16.4962 6.53995 15.9292 7.91779 15.1958L6.60221 12.7242ZM3.92567 14.8217L1.91567 11.5217L-0.475668 12.9783L1.53433 16.2783L3.92567 14.8217ZM1.01017 13.6196C3.47541 13.0973 5.48767 12.2908 6.88264 11.0916L5.05736 8.96836C4.17234 9.72917 2.68459 10.4027 0.429831 10.8804L1.01017 13.6196ZM6.89321 11.0825C8.38249 9.77608 9.08 7.99721 9.08 5.92H6.28C6.28 7.32279 5.83751 8.28392 5.04679 8.97754L6.89321 11.0825ZM9.08 5.92V0.189998H6.28V5.92H9.08ZM7.68 1.59H12.39V-1.21H7.68V1.59ZM10.99 0.189998V5.95H13.79V0.189998H10.99ZM6.52 17.38V22.3H9.32V17.38H6.52ZM7.92 23.7H26.31V20.9H7.92V23.7ZM24.91 22.3V25.93H27.71V22.3H24.91ZM26.31 24.53H3.21V27.33H26.31V24.53ZM4.61 25.93V17.38H1.81V25.93H4.61ZM3.21 18.78H7.92V15.98H3.21V18.78ZM24.61 0.249999V18.16H27.41V0.249999H24.61ZM26.01 16.76H21.3V19.56H26.01V16.76ZM22.7 18.16V0.249999H19.9V18.16H22.7ZM21.3 1.65H26.01V-1.15H21.3V1.65ZM32.6229 1.81L33.3995 2.97492L33.4101 2.9677L32.6229 1.81ZM44.2029 1.24L43.6139 2.51008L43.6208 2.51326L44.2029 1.24ZM47.0829 4L45.7983 4.55665L46.2593 5.62055L47.3905 5.36579L47.0829 4ZM50.4129 3.25L50.7205 4.61579L51.8129 4.36975V3.25H50.4129ZM50.4129 0.249999V-1.15H49.0129V0.249999H50.4129ZM55.1229 0.249999H56.5229V-1.15H55.1229V0.249999ZM55.1229 19.93V21.33H56.5229V19.93H55.1229ZM50.4129 19.93H49.0129V21.33H50.4129V19.93ZM50.4129 7H51.8129V5.24758L50.1037 5.63456L50.4129 7ZM47.2329 7.72L46.9237 6.35456L46.1419 6.53159L45.8988 7.29551L47.2329 7.72ZM44.4429 10.75L43.8308 9.49088L44.4429 10.75ZM32.6229 10.3L31.8356 11.4577L31.8463 11.4649L32.6229 10.3ZM36.0429 18.58H37.4429V17.18H36.0429V18.58ZM36.0429 22.3H34.6429V23.7H36.0429V22.3ZM55.4229 22.3H56.8229V20.9H55.4229V22.3ZM55.4229 25.93V27.33H56.8229V25.93H55.4229ZM31.3329 25.93H29.9329V27.33H31.3329V25.93ZM31.3329 18.58V17.18H29.9329V18.58H31.3329ZM36.9429 20.29H35.5429V21.69H36.9429V20.29ZM36.9429 17.08H38.3429V15.68H36.9429V17.08ZM29.9229 17.08H28.5229V18.48H29.9229V17.08ZM29.9229 13.42V12.02H28.5229V13.42H29.9229ZM48.6429 13.42H50.0429V12.02H48.6429V13.42ZM48.6429 17.08V18.48H50.0429V17.08H48.6429ZM41.6529 17.08V15.68H40.2529V17.08H41.6529ZM41.6529 20.29V21.69H43.0529V20.29H41.6529ZM35.4129 6.97L34.312 7.83495L34.3277 7.85492L34.3441 7.87432L35.4129 6.97ZM37.5129 8.05L37.2155 9.41805L37.2441 9.42427L37.273 9.4293L37.5129 8.05ZM40.3329 8.02L40.0473 6.64938L40.0355 6.65195L40.3329 8.02ZM41.5929 7.6L40.9936 6.33477L40.9801 6.34114L40.9668 6.3478L41.5929 7.6ZM42.4929 6.94L41.4241 6.03568L41.4241 6.03568L42.4929 6.94ZM41.7129 4.48L41.0594 5.71814L41.0664 5.7218L41.0734 5.72539L41.7129 4.48ZM36.1629 4.45L35.5368 3.1978L35.5368 3.1978L36.1629 4.45ZM31.7729 6.04C31.7729 4.68269 32.2934 3.71224 33.3995 2.97487L31.8463 0.645129C29.9524 1.90776 28.9729 3.75731 28.9729 6.04H31.7729ZM33.4101 2.9677C34.5901 2.16531 36.3743 1.68 38.9229 1.68V-1.12C36.0715 -1.12 33.6557 -0.585316 31.8357 0.652302L33.4101 2.9677ZM38.9229 1.68C40.9367 1.68 42.4776 1.98309 43.6139 2.51006L44.7919 -0.0300644C43.1682 -0.783094 41.1891 -1.12 38.9229 -1.12V1.68ZM43.6208 2.51326C44.7652 3.0364 45.4397 3.72905 45.7983 4.55665L48.3675 3.44335C47.6861 1.87095 46.4406 0.723594 44.785 -0.0332651L43.6208 2.51326ZM47.3905 5.36579L50.7205 4.61579L50.1053 1.88421L46.7753 2.63421L47.3905 5.36579ZM51.8129 3.25V0.249999H49.0129V3.25H51.8129ZM50.4129 1.65H55.1229V-1.15H50.4129V1.65ZM53.7229 0.249999V19.93H56.5229V0.249999H53.7229ZM55.1229 18.53H50.4129V21.33H55.1229V18.53ZM51.8129 19.93V7H49.0129V19.93H51.8129ZM50.1037 5.63456L46.9237 6.35456L47.542 9.08544L50.722 8.36544L50.1037 5.63456ZM45.8988 7.29551C45.6134 8.19236 44.9847 8.92998 43.8308 9.49088L45.055 12.0091C46.7811 11.17 48.0123 9.88764 48.567 8.14449L45.8988 7.29551ZM43.8308 9.49088C42.642 10.0688 41.0302 10.4 38.9229 10.4V13.2C41.2956 13.2 43.3638 12.8312 45.055 12.0091L43.8308 9.49088ZM38.9229 10.4C36.3701 10.4 34.5815 9.92315 33.3995 9.13513L31.8463 11.4649C33.6643 12.6769 36.0756 13.2 38.9229 13.2V10.4ZM33.4101 9.1423C32.295 8.38401 31.7729 7.39832 31.7729 6.04H28.9729C28.9729 8.32168 29.9508 10.176 31.8357 11.4577L33.4101 9.1423ZM34.6429 18.58V22.3H37.4429V18.58H34.6429ZM36.0429 23.7H55.4229V20.9H36.0429V23.7ZM54.0229 22.3V25.93H56.8229V22.3H54.0229ZM55.4229 24.53H31.3329V27.33H55.4229V24.53ZM32.7329 25.93V18.58H29.9329V25.93H32.7329ZM31.3329 19.98H36.0429V17.18H31.3329V19.98ZM38.3429 20.29V17.08H35.5429V20.29H38.3429ZM36.9429 15.68H29.9229V18.48H36.9429V15.68ZM31.3229 17.08V13.42H28.5229V17.08H31.3229ZM29.9229 14.82H48.6429V12.02H29.9229V14.82ZM47.2429 13.42V17.08H50.0429V13.42H47.2429ZM48.6429 15.68H41.6529V18.48H48.6429V15.68ZM40.2529 17.08V20.29H43.0529V17.08H40.2529ZM41.6529 18.89H36.9429V21.69H41.6529V18.89ZM33.6829 6.04C33.6829 6.7093 33.9081 7.32085 34.312 7.83495L36.5137 6.10505C36.4899 6.07471 36.4849 6.05972 36.4848 6.05932C36.4844 6.05827 36.4842 6.05738 36.4839 6.05577C36.4836 6.05409 36.4829 6.04918 36.4829 6.04H33.6829ZM34.3441 7.87432C34.7068 8.30289 35.1576 8.63258 35.6568 8.8822L36.909 6.3778C36.6882 6.26741 36.559 6.15711 36.4816 6.06568L34.3441 7.87432ZM35.6568 8.8822C36.137 9.12228 36.6603 9.29734 37.2155 9.41805L37.8103 6.68195C37.4455 6.60266 37.1488 6.49772 36.909 6.3778L35.6568 8.8822ZM37.273 9.4293C37.8144 9.52345 38.3647 9.57 38.9229 9.57V6.77C38.521 6.77 38.1314 6.73655 37.7528 6.6707L37.273 9.4293ZM38.9229 9.57C39.5009 9.57 40.0707 9.5097 40.6303 9.38805L40.0355 6.65195C39.6751 6.7303 39.3049 6.77 38.9229 6.77V9.57ZM40.6184 9.39057C41.1919 9.2711 41.7306 9.09639 42.219 8.8522L40.9668 6.3478C40.7352 6.46361 40.4339 6.5689 40.0474 6.64943L40.6184 9.39057ZM42.1922 8.86523C42.7114 8.61931 43.1861 8.28808 43.5616 7.84432L41.4241 6.03568C41.3596 6.11192 41.2344 6.22069 40.9936 6.33477L42.1922 8.86523ZM43.5616 7.84432C43.9951 7.33202 44.2229 6.71176 44.2229 6.04H41.4229C41.4229 6.04924 41.4222 6.05227 41.4225 6.05035C41.4229 6.04829 41.4239 6.04378 41.426 6.03804C41.4281 6.03231 41.4302 6.02832 41.4311 6.02673C41.432 6.02526 41.4304 6.02831 41.4241 6.03568L43.5616 7.84432ZM44.2229 6.04C44.2229 4.71049 43.4149 3.78022 42.3524 3.23461L41.0734 5.72539C41.3024 5.84302 41.383 5.93618 41.4047 5.96666C41.4147 5.98069 41.4168 5.98748 41.4176 5.99012C41.4186 5.99321 41.4229 6.00749 41.4229 6.04H44.2229ZM42.3664 3.24186C41.3806 2.7216 40.2047 2.51 38.9229 2.51V5.31C39.9211 5.31 40.6052 5.4784 41.0594 5.71814L42.3664 3.24186ZM38.9229 2.51C37.6656 2.51 36.512 2.7102 35.5368 3.1978L36.789 5.7022C37.2538 5.4698 37.9401 5.31 38.9229 5.31V2.51ZM35.5368 3.1978C35.0166 3.4579 34.5397 3.82311 34.1948 4.33086C33.8426 4.8494 33.6829 5.43662 33.6829 6.04H36.4829C36.4829 5.94338 36.5032 5.9156 36.511 5.90414C36.5261 5.88189 36.5892 5.8021 36.789 5.7022L35.5368 3.1978ZM67.8258 26.2L68.0316 24.8152L68.0316 24.8152L67.8258 26.2ZM64.0458 25.18L63.4702 26.4563L63.4795 26.4603L64.0458 25.18ZM61.7058 18.64L62.8021 19.5106L62.8083 19.5029L62.8143 19.4951L61.7058 18.64ZM64.0458 16.93L64.6003 18.2155L64.6121 18.2103L64.0458 16.93ZM67.8258 15.91L68.0316 17.2948L68.0316 17.2948L67.8258 15.91ZM81.6558 16.93L81.0802 18.2062L81.0952 18.213L81.1103 18.2194L81.6558 16.93ZM84.0258 18.64L82.9173 19.4951L82.9233 19.5029L82.9294 19.5106L84.0258 18.64ZM84.0258 23.47L82.9294 22.5994L82.9294 22.5994L84.0258 23.47ZM81.6558 25.18L81.0895 23.8996L81.0802 23.9038L81.6558 25.18ZM77.9058 26.2L77.6999 24.8152L77.6999 24.8152L77.9058 26.2ZM76.4358 0.549999H77.8358V-0.850001H76.4358V0.549999ZM76.4358 4.21V5.61H77.8358V4.21H76.4358ZM70.3158 4.21V2.81H68.9158V4.21H70.3158ZM70.2858 6.37L71.6801 6.49675L71.6809 6.48626L70.2858 6.37ZM70.1958 7.03L68.8184 6.77956L68.6453 7.73161L69.4747 8.23001L70.1958 7.03ZM76.8858 11.05L78.0286 11.8586L78.9 10.627L77.6069 9.84998L76.8858 11.05ZM74.6358 14.23L73.9155 15.4305L75.0288 16.0985L75.7786 15.0386L74.6358 14.23ZM68.4858 10.54L69.2061 9.33951L68.2019 8.73699L67.4314 9.61895L68.4858 10.54ZM60.9558 14.35L59.7601 15.0783L60.2847 15.9395L61.2677 15.7148L60.9558 14.35ZM58.9458 11.05L58.6473 9.68218L56.7284 10.1009L57.7501 11.7783L58.9458 11.05ZM61.8258 10.24L61.3549 8.92152L61.3448 8.92523L61.8258 10.24ZM63.9258 9.16L63.0858 8.04L63.0858 8.04L63.9258 9.16ZM65.1858 7.66L66.4466 8.26865L66.4466 8.26865L65.1858 7.66ZM65.6058 4.21H67.0058V2.81H65.6058V4.21ZM59.7858 4.21H58.3858V5.61H59.7858V4.21ZM59.7858 0.549999V-0.850001H58.3858V0.549999H59.7858ZM84.2358 0.249999H85.6358V-1.15H84.2358V0.249999ZM84.2358 15.13V16.53H85.6358V15.13H84.2358ZM79.5258 15.13H78.1258V16.53H79.5258V15.13ZM79.5258 8.29H80.9258V6.54171L79.2198 6.92385L79.5258 8.29ZM75.7758 9.13H74.3758V10.8783L76.0818 10.4961L75.7758 9.13ZM75.7758 5.38L75.4698 4.01385L74.3758 4.25891V5.38H75.7758ZM79.5258 4.54L79.8318 5.90615L80.9258 5.66109V4.54H79.5258ZM79.5258 0.249999V-1.15H78.1258V0.249999H79.5258ZM78.2058 22.45L77.9066 21.0823L77.9021 21.0833L78.2058 22.45ZM78.2058 19.63L77.9021 20.9967L77.9066 20.9977L78.2058 19.63ZM67.4958 19.63L67.1966 18.2623L67.1921 18.2633L67.4958 19.63ZM67.4958 22.45L67.1921 23.8167L67.1966 23.8177L67.4958 22.45ZM72.8658 25.13C71.0381 25.13 69.4288 25.0229 68.0316 24.8152L67.6199 27.5848C69.1828 27.8171 70.9335 27.93 72.8658 27.93V25.13ZM68.0316 24.8152C66.6392 24.6082 65.5076 24.2957 64.6121 23.8997L63.4795 26.4603C64.664 26.9843 66.0523 27.3518 67.6199 27.5848L68.0316 24.8152ZM64.6213 23.9038C63.7479 23.5099 63.1691 23.0615 62.8021 22.5994L60.6094 24.3406C61.3224 25.2385 62.3037 25.9301 63.4702 26.4562L64.6213 23.9038ZM62.8021 22.5994C62.4754 22.1879 62.2958 21.6917 62.2958 21.04H59.4958C59.4958 22.2683 59.8561 23.3921 60.6094 24.3406L62.8021 22.5994ZM62.2958 21.04C62.2958 20.416 62.471 19.9277 62.8021 19.5106L60.6094 17.7694C59.8606 18.7123 59.4958 19.824 59.4958 21.04H62.2958ZM62.8143 19.4951C63.1765 19.0256 63.7435 18.5851 64.6003 18.2155L63.4913 15.6445C62.3081 16.1549 61.3151 16.8544 60.5973 17.7849L62.8143 19.4951ZM64.6121 18.2103C65.5076 17.8143 66.6392 17.5018 68.0316 17.2948L67.6199 14.5252C66.0523 14.7582 64.664 15.1257 63.4795 15.6496L64.6121 18.2103ZM68.0316 17.2948C69.4288 17.0871 71.0381 16.98 72.8658 16.98V14.18C70.9335 14.18 69.1828 14.2929 67.6199 14.5252L68.0316 17.2948ZM72.8658 16.98C74.6935 16.98 76.3028 17.0871 77.6999 17.2948L78.1116 14.5252C76.5488 14.2929 74.7981 14.18 72.8658 14.18V16.98ZM77.6999 17.2948C79.0923 17.5018 80.2098 17.8137 81.0802 18.2062L82.2313 15.6538C81.0617 15.1263 79.6792 14.7582 78.1116 14.5252L77.6999 17.2948ZM81.1103 18.2194C81.9886 18.591 82.5598 19.0318 82.9173 19.4951L85.1343 17.7849C84.4117 16.8482 83.4029 16.149 82.2013 15.6406L81.1103 18.2194ZM82.9294 19.5106C83.2606 19.9277 83.4358 20.416 83.4358 21.04H86.2358C86.2358 19.824 85.871 18.7123 85.1221 17.7694L82.9294 19.5106ZM83.4358 21.04C83.4358 21.6917 83.2561 22.1879 82.9294 22.5994L85.1221 24.3406C85.8754 23.3921 86.2358 22.2683 86.2358 21.04H83.4358ZM82.9294 22.5994C82.5672 23.0555 81.9842 23.5039 81.0895 23.8997L82.2221 26.4603C83.4074 25.9361 84.4044 25.2445 85.1221 24.3406L82.9294 22.5994ZM81.0802 23.9038C80.2098 24.2963 79.0923 24.6082 77.6999 24.8152L78.1116 27.5848C79.6792 27.3518 81.0617 26.9837 82.2313 26.4562L81.0802 23.9038ZM77.6999 24.8152C76.3028 25.0229 74.6935 25.13 72.8658 25.13V27.93C74.7981 27.93 76.5488 27.8171 78.1116 27.5848L77.6999 24.8152ZM75.0358 0.549999V4.21H77.8358V0.549999H75.0358ZM76.4358 2.81H70.3158V5.61H76.4358V2.81ZM68.9158 4.21V5.65H71.7158V4.21H68.9158ZM68.9158 5.65C68.9158 5.85106 68.9074 6.05227 68.8906 6.25373L71.6809 6.48626C71.7042 6.20773 71.7158 5.92894 71.7158 5.65H68.9158ZM68.8915 6.24325C68.8753 6.42129 68.851 6.60002 68.8184 6.77956L71.5732 7.28044C71.6206 7.01998 71.6562 6.75871 71.68 6.49675L68.8915 6.24325ZM69.4747 8.23001L76.1647 12.25L77.6069 9.84998L70.9169 5.82998L69.4747 8.23001ZM75.7429 10.2414L73.4929 13.4214L75.7786 15.0386L78.0286 11.8586L75.7429 10.2414ZM75.3561 13.0295L69.2061 9.33951L67.7655 11.7405L73.9155 15.4305L75.3561 13.0295ZM67.4314 9.61895C66.1868 11.0438 64.0047 12.217 60.6438 12.9852L61.2677 15.7148C64.9068 14.883 67.7448 13.5162 69.5401 11.461L67.4314 9.61895ZM62.1514 13.6217L60.1414 10.3217L57.7501 11.7783L59.7601 15.0783L62.1514 13.6217ZM59.2442 12.4178C60.3895 12.1679 61.413 11.8818 62.3068 11.5548L61.3448 8.92523C60.5985 9.19825 59.7021 9.45205 58.6473 9.68218L59.2442 12.4178ZM62.2967 11.5584C63.2345 11.2235 64.0675 10.8037 64.7658 10.28L63.0858 8.04C62.6641 8.35628 62.097 8.65652 61.3549 8.92156L62.2967 11.5584ZM64.7658 10.28C65.489 9.73757 66.0609 9.06746 66.4466 8.26865L63.925 7.05135C63.7506 7.41254 63.4825 7.74243 63.0858 8.04L64.7658 10.28ZM66.4466 8.26865C66.8355 7.46298 67.0058 6.56697 67.0058 5.62H64.2058C64.2058 6.23303 64.0961 6.69702 63.925 7.05135L66.4466 8.26865ZM67.0058 5.62V4.21H64.2058V5.62H67.0058ZM65.6058 2.81H59.7858V5.61H65.6058V2.81ZM61.1858 4.21V0.549999H58.3858V4.21H61.1858ZM59.7858 1.95H76.4358V-0.850001H59.7858V1.95ZM82.8358 0.249999V15.13H85.6358V0.249999H82.8358ZM84.2358 13.73H79.5258V16.53H84.2358V13.73ZM80.9258 15.13V8.29H78.1258V15.13H80.9258ZM79.2198 6.92385L75.4698 7.76385L76.0818 10.4961L79.8318 9.65615L79.2198 6.92385ZM77.1758 9.13V5.38H74.3758V9.13H77.1758ZM76.0818 6.74614L79.8318 5.90615L79.2198 3.17385L75.4698 4.01385L76.0818 6.74614ZM80.9258 4.54V0.249999H78.1258V4.54H80.9258ZM79.5258 1.65H84.2358V-1.15H79.5258V1.65ZM72.8658 24.27C75.2019 24.27 77.1012 24.1296 78.5095 23.8167L77.9021 21.0833C76.7904 21.3304 75.1297 21.47 72.8658 21.47V24.27ZM78.505 23.8177C79.2275 23.6596 79.9265 23.4183 80.4745 23.0159C81.0714 22.5775 81.5258 21.9087 81.5258 21.04H78.7258C78.7258 20.9673 78.7464 20.8822 78.7876 20.8094C78.8242 20.7448 78.8525 20.7331 78.8171 20.7591C78.7251 20.8267 78.4641 20.9604 77.9066 21.0823L78.505 23.8177ZM81.5258 21.04C81.5258 20.1713 81.0714 19.5025 80.4745 19.0641C79.9265 18.6617 79.2275 18.4204 78.505 18.2623L77.9066 20.9977C78.4641 21.1196 78.7251 21.2533 78.8171 21.3209C78.8525 21.3469 78.8242 21.3352 78.7876 21.2706C78.7464 21.1978 78.7258 21.1127 78.7258 21.04H81.5258ZM78.5095 18.2633C77.1012 17.9504 75.2019 17.81 72.8658 17.81V20.61C75.1297 20.61 76.7904 20.7496 77.9021 20.9967L78.5095 18.2633ZM72.8658 17.81C70.5284 17.81 68.6218 17.9506 67.1966 18.2623L67.795 20.9977C68.9298 20.7494 70.6031 20.61 72.8658 20.61V17.81ZM67.1921 18.2633C66.4777 18.4221 65.7846 18.6649 65.2411 19.0704C64.6482 19.5127 64.2058 20.1809 64.2058 21.04H67.0058C67.0058 21.1086 66.9866 21.1908 66.9467 21.2624C66.911 21.3264 66.8828 21.339 66.9154 21.3146C67.0019 21.2501 67.2539 21.1179 67.7995 20.9967L67.1921 18.2633ZM64.2058 21.04C64.2058 21.8991 64.6482 22.5673 65.2411 23.0096C65.7846 23.4151 66.4777 23.6579 67.1921 23.8167L67.7995 21.0833C67.2539 20.9621 67.0019 20.8299 66.9154 20.7654C66.8828 20.741 66.911 20.7536 66.9467 20.8176C66.9866 20.8892 67.0058 20.9714 67.0058 21.04H64.2058ZM67.1966 23.8177C68.6218 24.1294 70.5284 24.27 72.8658 24.27V21.47C70.6031 21.47 68.9298 21.3306 67.795 21.0823L67.1966 23.8177ZM95.2587 15.1H96.6587V13.7H95.2587V15.1ZM95.2587 16.87H93.8587V18.27H95.2587V16.87ZM108.639 16.87V18.27H110.039V16.87H108.639ZM108.639 15.1V13.7H107.239V15.1H108.639ZM113.349 15.1H114.749V13.7H113.349V15.1ZM113.349 25.93V27.33H114.749V25.93H113.349ZM90.5487 25.93H89.1487V27.33H90.5487V25.93ZM90.5487 15.1V13.7H89.1487V15.1H90.5487ZM108.639 22.3V23.7H110.039V22.3H108.639ZM108.639 20.5H110.039V19.1H108.639V20.5ZM95.2587 20.5V19.1H93.8587V20.5H95.2587ZM95.2587 22.3H93.8587V23.7H95.2587V22.3ZM113.349 0.249999H114.749V-1.15H113.349V0.249999ZM113.349 13.75V15.15H114.749V13.75H113.349ZM108.639 13.75H107.239V15.15H108.639V13.75ZM108.639 0.249999V-1.15H107.239V0.249999H108.639ZM88.9887 4.15L90.2469 4.76379L90.2469 4.76379L88.9887 4.15ZM90.6987 2.05L89.8493 0.937067L89.8421 0.942548L89.835 0.948121L90.6987 2.05ZM93.3987 0.729998L93.7867 2.07515L93.795 2.07276L93.8033 2.07026L93.3987 0.729998ZM100.449 0.729998L100.037 2.06809L100.052 2.07276L100.067 2.07709L100.449 0.729998ZM103.149 2.05L102.285 3.15188L102.292 3.15745L102.299 3.16293L103.149 2.05ZM104.889 4.15L106.147 3.53621L106.147 3.53621L104.889 4.15ZM104.889 9.61L106.141 10.2361L106.147 10.2238L104.889 9.61ZM103.149 11.68L103.993 12.7964L103.998 12.7929L103.149 11.68ZM100.449 13L100.044 11.6597L100.037 11.6619L100.449 13ZM93.3987 13L92.9869 14.3381L92.9941 14.3403L93.3987 13ZM90.6987 11.68L89.835 12.7819L89.8514 12.7947L89.8682 12.8071L90.6987 11.68ZM88.9887 9.61L87.7303 10.2238L87.7365 10.2361L88.9887 9.61ZM99.6687 9.01L98.8434 7.87909L98.836 7.8845L98.8287 7.89L99.6687 9.01ZM99.6687 4.72L98.8287 5.84L98.836 5.8455L98.8434 5.85091L99.6687 4.72ZM94.1787 4.72L93.3534 3.58909L93.346 3.5945L93.3387 3.6L94.1787 4.72ZM94.1787 9.01L93.3387 10.13L93.346 10.1355L93.3534 10.1409L94.1787 9.01ZM93.8587 15.1V16.87H96.6587V15.1H93.8587ZM95.2587 18.27H108.639V15.47H95.2587V18.27ZM110.039 16.87V15.1H107.239V16.87H110.039ZM108.639 16.5H113.349V13.7H108.639V16.5ZM111.949 15.1V25.93H114.749V15.1H111.949ZM113.349 24.53H90.5487V27.33H113.349V24.53ZM91.9487 25.93V15.1H89.1487V25.93H91.9487ZM90.5487 16.5H95.2587V13.7H90.5487V16.5ZM110.039 22.3V20.5H107.239V22.3H110.039ZM108.639 19.1H95.2587V21.9H108.639V19.1ZM93.8587 20.5V22.3H96.6587V20.5H93.8587ZM95.2587 23.7H108.639V20.9H95.2587V23.7ZM111.949 0.249999V13.75H114.749V0.249999H111.949ZM113.349 12.35H108.639V15.15H113.349V12.35ZM110.039 13.75V0.249999H107.239V13.75H110.039ZM108.639 1.65H113.349V-1.15H108.639V1.65ZM89.7887 6.88C89.7887 6.07197 89.9489 5.37482 90.2469 4.76379L87.7304 3.53621C87.2285 4.56518 86.9887 5.68803 86.9887 6.88H89.7887ZM90.2469 4.76379C90.5512 4.14017 90.9838 3.60527 91.5623 3.15188L89.835 0.948121C88.9335 1.65473 88.2262 2.51983 87.7304 3.53621L90.2469 4.76379ZM91.548 3.16293C92.153 2.70127 92.8916 2.33334 93.7867 2.07515L93.0106 -0.615154C91.8257 -0.273339 90.7644 0.238732 89.8493 0.937067L91.548 3.16293ZM93.8033 2.07026C94.7116 1.79606 95.7525 1.65 96.9387 1.65V-1.15C95.5248 -1.15 94.2058 -0.976061 92.9941 -0.610261L93.8033 2.07026ZM96.9387 1.65C98.1254 1.65 99.1533 1.79621 100.037 2.06809L100.86 -0.608092C99.664 -0.976211 98.3519 -1.15 96.9387 -1.15V1.65ZM100.067 2.07709C100.982 2.33589 101.711 2.70176 102.285 3.15188L104.012 0.948121C103.107 0.23824 102.036 -0.275887 100.83 -0.61709L100.067 2.07709ZM102.299 3.16293C102.895 3.61718 103.331 4.14918 103.63 4.76379L106.147 3.53621C105.647 2.51082 104.923 1.64282 103.998 0.937068L102.299 3.16293ZM103.63 4.76379C103.928 5.37482 104.089 6.07197 104.089 6.88H106.889C106.889 5.68803 106.649 4.56518 106.147 3.53621L103.63 4.76379ZM104.089 6.88C104.089 7.68803 103.928 8.38518 103.63 8.99621L106.147 10.2238C106.649 9.19482 106.889 8.07197 106.889 6.88H104.089ZM103.636 8.9839C103.338 9.58004 102.902 10.1074 102.299 10.5671L103.998 12.7929C104.916 12.0926 105.639 11.24 106.141 10.2361L103.636 8.9839ZM102.304 10.5636C101.719 11.0062 100.975 11.3787 100.044 11.6597L100.853 14.3403C102.042 13.9813 103.098 13.4738 103.993 12.7964L102.304 10.5636ZM100.037 11.6619C99.1533 11.9338 98.1254 12.08 96.9387 12.08V14.88C98.3519 14.88 99.664 14.7062 100.86 14.3381L100.037 11.6619ZM96.9387 12.08C95.7525 12.08 94.7116 11.9339 93.8033 11.6597L92.9941 14.3403C94.2058 14.7061 95.5248 14.88 96.9387 14.88V12.08ZM93.8104 11.6619C92.8983 11.3813 92.1447 11.0065 91.5291 10.5529L89.8682 12.8071C90.7726 13.4735 91.8191 13.9787 92.9869 14.3381L93.8104 11.6619ZM91.5623 10.5781C90.9769 10.1193 90.5434 9.58901 90.2409 8.9839L87.7365 10.2361C88.2339 11.231 88.9404 12.0807 89.835 12.7819L91.5623 10.5781ZM90.2469 8.99621C89.9489 8.38518 89.7887 7.68803 89.7887 6.88H86.9887C86.9887 8.07197 87.2285 9.19482 87.7304 10.2238L90.2469 8.99621ZM96.9387 11.22C98.2728 11.22 99.4965 10.8891 100.509 10.13L98.8287 7.89C98.4008 8.21088 97.8046 8.42 96.9387 8.42V11.22ZM100.494 10.1409C101.578 9.35007 102.179 8.22828 102.179 6.88H99.3787C99.3787 7.29172 99.2397 7.58993 98.8434 7.87909L100.494 10.1409ZM102.179 6.88C102.179 5.5235 101.587 4.38708 100.494 3.58909L98.8434 5.85091C99.2299 6.13292 99.3787 6.4365 99.3787 6.88H102.179ZM100.509 3.6C99.4965 2.84088 98.2728 2.51 96.9387 2.51V5.31C97.8046 5.31 98.4008 5.51911 98.8287 5.84L100.509 3.6ZM96.9387 2.51C95.6031 2.51 94.378 2.84138 93.3534 3.58909L95.0039 5.85091C95.4593 5.51861 96.0743 5.31 96.9387 5.31V2.51ZM93.3387 3.6C92.2661 4.4044 91.6987 5.53934 91.6987 6.88H94.4987C94.4987 6.42066 94.6512 6.1156 95.0187 5.84L93.3387 3.6ZM91.6987 6.88C91.6987 8.21232 92.2756 9.33268 93.3387 10.13L95.0187 7.89C94.6418 7.60732 94.4987 7.30768 94.4987 6.88H91.6987ZM93.3534 10.1409C94.378 10.8886 95.6031 11.22 96.9387 11.22V8.42C96.0743 8.42 95.4593 8.21138 95.0039 7.87909L93.3534 10.1409ZM123.112 0.849999H124.512V-0.550001H123.112V0.849999ZM123.112 21.37H121.712V22.77H123.112V21.37ZM134.572 21.37H135.972V19.97H134.572V21.37ZM134.572 25.03V26.43H135.972V25.03H134.572ZM118.402 25.03H117.002V26.43H118.402V25.03ZM118.402 0.849999V-0.550001H117.002V0.849999H118.402ZM142.462 25.33V26.73H143.862V25.33H142.462ZM137.752 25.33H136.352V26.73H137.752V25.33ZM137.752 0.249999V-1.15H136.352V0.249999H137.752ZM142.462 0.249999H143.862V-1.15H142.462V0.249999ZM121.712 0.849999V21.37H124.512V0.849999H121.712ZM123.112 22.77H134.572V19.97H123.112V22.77ZM133.172 21.37V25.03H135.972V21.37H133.172ZM134.572 23.63H118.402V26.43H134.572V23.63ZM119.802 25.03V0.849999H117.002V25.03H119.802ZM118.402 2.25H123.112V-0.550001H118.402V2.25ZM142.462 23.93H137.752V26.73H142.462V23.93ZM139.152 25.33V0.249999H136.352V25.33H139.152ZM137.752 1.65H142.462V-1.15H137.752V1.65ZM141.062 0.249999V25.33H143.862V0.249999H141.062ZM163.084 0.849999H164.484V-0.550001H163.084V0.849999ZM163.084 4.51V5.91H164.484V4.51H163.084ZM152.224 4.51V3.11H150.824V4.51H152.224ZM152.224 21.37H150.824V22.77H152.224V21.37ZM163.384 21.37H164.784V19.97H163.384V21.37ZM163.384 25.03V26.43H164.784V25.03H163.384ZM147.514 25.03H146.114V26.43H147.514V25.03ZM147.514 0.849999V-0.550001H146.114V0.849999H147.514ZM170.674 9.64H169.274V11.04H170.674V9.64ZM173.284 9.64H174.684V8.24H173.284V9.64ZM173.284 13.3V14.7H174.684V13.3H173.284ZM170.674 13.3V11.9H169.274V13.3H170.674ZM170.674 25.33V26.73H172.074V25.33H170.674ZM165.964 25.33H164.564V26.73H165.964V25.33ZM165.964 0.249999V-1.15H164.564V0.249999H165.964ZM170.674 0.249999H172.074V-1.15H170.674V0.249999ZM161.684 0.849999V4.51H164.484V0.849999H161.684ZM163.084 3.11H152.224V5.91H163.084V3.11ZM150.824 4.51V21.37H153.624V4.51H150.824ZM152.224 22.77H163.384V19.97H152.224V22.77ZM161.984 21.37V25.03H164.784V21.37H161.984ZM163.384 23.63H147.514V26.43H163.384V23.63ZM148.914 25.03V0.849999H146.114V25.03H148.914ZM147.514 2.25H163.084V-0.550001H147.514V2.25ZM170.674 11.04H173.284V8.24H170.674V11.04ZM171.884 9.64V13.3H174.684V9.64H171.884ZM173.284 11.9H170.674V14.7H173.284V11.9ZM169.274 13.3V25.33H172.074V13.3H169.274ZM170.674 23.93H165.964V26.73H170.674V23.93ZM167.364 25.33V0.249999H164.564V25.33H167.364ZM165.964 1.65H170.674V-1.15H165.964V1.65ZM169.274 0.249999V9.64H172.074V0.249999H169.274ZM176.597 25.51H175.197V26.91H176.597V25.51ZM176.597 20.95V19.55H175.197V20.95H176.597ZM181.427 20.95H182.827V19.55H181.427V20.95ZM181.427 25.51V26.91H182.827V25.51H181.427ZM177.997 25.51V20.95H175.197V25.51H177.997ZM176.597 22.35H181.427V19.55H176.597V22.35ZM180.027 20.95V25.51H182.827V20.95H180.027ZM181.427 24.11H176.597V26.91H181.427V24.11Z" fill="#2E2E2E"/>
</svg>
