<svg width="24" height="24" viewBox="0 0 24 24" fill="none" xmlns="http://www.w3.org/2000/svg">
<path d="M10.5168 22C10.5168 22.8284 11.1884 23.5 12.0168 23.5C12.8452 23.5 13.5168 22.8284 13.5168 22L10.5168 22ZM13.0773 0.453225C12.4915 -0.132556 11.5417 -0.132548 10.9559 0.453244L1.41008 9.99927C0.824296 10.5851 0.824305 11.5348 1.4101 12.1206C1.99589 12.7064 2.94564 12.7064 3.53142 12.1206L12.0166 3.63521L20.502 12.1204C21.0878 12.7062 22.0375 12.7062 22.6233 12.1204C23.2091 11.5346 23.2091 10.5849 22.6233 9.99908L13.0773 0.453225ZM13.5168 22L13.5166 1.51388L10.5166 1.51391L10.5168 22L13.5168 22Z" fill="#FF6060"/>
</svg>
